<?xml version="1.0" standalone="no"?>
<!DOCTYPE svg PUBLIC "-//W3C//DTD SVG 20010904//EN"
 "http://www.w3.org/TR/2001/REC-SVG-20010904/DTD/svg10.dtd">
<svg version="1.0" xmlns="http://www.w3.org/2000/svg"
 width="734.000000pt" height="433.000000pt" viewBox="0 0 734.000000 433.000000"
 preserveAspectRatio="xMidYMid meet">
<metadata>
Created by potrace 1.16, written by Peter Selinger 2001-2019
</metadata>
<g transform="translate(0.000000,433.000000) scale(0.100000,-0.100000)"
fill="#000000" stroke="none">
<path d="M0 4320 c0 -7 1228 -10 3665 -10 l3665 0 3 -2157 2 -2158 3 2168 2
2167 -3670 0 c-2440 0 -3670 -3 -3670 -10z"/>
<path d="M391 3906 c-8 -10 -10 -478 -9 -1762 l3 -1749 115 -5 c105 -5 118 -7
150 -31 80 -61 196 -98 365 -118 126 -15 5164 -15 5290 0 169 20 285 57 365
118 32 24 45 26 150 31 l115 5 3 1749 c1 1284 -1 1752 -9 1762 -17 21 -6521
21 -6538 0z m544 -211 c14 -13 25 -36 25 -50 0 -33 -42 -75 -75 -75 -33 0 -75
42 -75 75 0 33 42 75 75 75 14 0 37 -11 50 -25z m251 4 c36 -30 19 -106 -27
-121 -58 -19 -110 33 -91 91 15 45 80 62 118 30z"/>
</g>
</svg>
